<?xml version="1.0" encoding="utf-8"?>
<!-- Generator: Adobe Illustrator 26.0.0, SVG Export Plug-In . SVG Version: 6.00 Build 0)  -->
<svg version="1.1" id="Capa_1" xmlns="http://www.w3.org/2000/svg" xmlns:xlink="http://www.w3.org/1999/xlink" x="0px" y="0px"
	 viewBox="0 0 20 20" style="enable-background:new 0 0 20 20;" xml:space="preserve">
<style type="text/css">
	.st0{fill:#91009E;}
</style>
<path class="st0" d="M17.9,5c0,0.2,0,0.4,0,0.7C18,12.3,13.8,20,6.3,20C4,20,1.8,19.2,0,17.7c0.3,0,0.6,0.1,1,0.1
	c1.9,0,3.7-0.8,5.1-2.2c-1.8,0-3.3-1.5-3.8-3.5c0.3,0,0.5,0.1,0.8,0.1c0.4,0,0.7-0.1,1.1-0.2c-1.9-0.5-3.3-2.5-3.3-5V7
	C1.4,7.4,2,7.6,2.7,7.7C1.6,6.8,0.8,5.2,0.8,3.5c0-0.9,0.2-1.8,0.6-2.5C3.4,4,6.4,6,9.8,6.2C9.8,5.8,9.7,5.4,9.7,5
	c0-2.8,1.8-5,4.1-5c1.2,0,2.2,0.6,3,1.6c0.9-0.2,1.8-0.6,2.6-1.2c-0.3,1.2-1,2.2-1.8,2.8C18.5,3,19.3,2.8,20,2.4
	C19.4,3.4,18.7,4.3,17.9,5z"/>
</svg>
